# xmcd CD database file
#
# Track frame offsets:
#	150
#	18587
#	42304
#	71357
#	94295
#	111878
#	137978
#	145439
#	182600
#	204214
#	217608
#	229998
#	267156
#
# Disc length: 3660 seconds
#
# Revision: 0
# Processed by: cddbd v1.5PL3 Copyright (c) Steve Scherf et al.
# Submitted via: CDex 1.51
#
DISCID=bb0e4a0d
DTITLE=Johnny Joyland - fff: Best Of 1990-1999
DYEAR=2002
DGENRE=Jazz
TTITLE0=A Wishin' I'll Go
TTITLE1=Gonna Make You
TTITLE2=Marongo
TTITLE3=So Green
TTITLE4=Big Box
TTITLE5=Driven to Annoy
TTITLE6=Pleuritic Penicillis
TTITLE7=Trio for Post Modern Trinketts
TTITLE8=Carryin' on the Atlantic
TTITLE9=Hard Vex
TTITLE10=Devexation
TTITLE11=Fresh Tulips
TTITLE12=Still Carryin' on the Atlantic
EXTD=YEAR: 2002
EXTT0=
EXTT1=
EXTT2=
EXTT3=
EXTT4=
EXTT5=
EXTT6=
EXTT7=
EXTT8=
EXTT9=
EXTT10=
EXTT11=
EXTT12=
PLAYORDER=
